# xmcd
#
# Track frame offsets:
# 150
# 13977
# 30355
# 41275
# 53940
# 68265
# 80025
# 93425
# 107517
# 119095
# 129582
# 141215
# 156630
# 173659
# 187057
#
# Disc length: 2683 seconds
#
#
# Revision: 1
# Processed by: cddbd v1.5.1PL2 Copyright (c) Steve Scherf et al.
# Submitted via: FreeRIP 2.944 
#
DISCID=cc0a790f
DTITLE=Tibagi e Niltinho - 15 Sucessos Sertanejos
DYEAR=1900
DGENRE=Sertanejos
TTITLE0=Menino da porteira
TTITLE1=Milagre das rosas
TTITLE2=Lágrimas de quem ama
TTITLE3=Contigo
TTITLE4=Saudade da minha terra
TTITLE5=Bendita hora
TTITLE6=Beijinho doce
TTITLE7=Sem a mulher o homem não vive
TTITLE8=Minha última noite
TTITLE9=Caminho certo
TTITLE10=Todinha pra mim
TTITLE11=Ombro à ombro
TTITLE12=Mágoas de boiadeiro
TTITLE13=São Judas Tadeu
TTITLE14=Sempre a esperar
EXTD=
EXTT0=
EXTT1=
EXTT2=
EXTT3=
EXTT4=
EXTT5=
EXTT6=
EXTT7=
EXTT8=
EXTT9=
EXTT10=
EXTT11=
EXTT12=
EXTT13=
EXTT14=
PLAYORDER=
